<svg width="54" height="54" viewBox="0 0 54 54" fill="none" xmlns="http://www.w3.org/2000/svg">
<path d="M6.75 20.196C6.75 9.12375 9.12375 6.75 20.196 6.75H33.804C44.8763 6.75 47.25 9.12375 47.25 20.196V33.804C47.25 44.8763 44.8763 47.25 33.804 47.25H20.196C9.12375 47.25 6.75 44.8763 6.75 33.804V20.196Z" stroke="black" stroke-width="2" stroke-linecap="round" stroke-linejoin="round"/>
<path d="M38.2612 37.1295L28.638 27.5085C20.808 19.6785 17.451 19.6785 9.62325 27.5085L6.75 30.3795M47.25 30.7575C42.5408 27.1508 39.3255 27.657 34.1955 32.2785M38.25 18C38.25 18.5967 38.0129 19.169 37.591 19.591C37.169 20.0129 36.5967 20.25 36 20.25C35.4033 20.25 34.831 20.0129 34.409 19.591C33.9871 19.169 33.75 18.5967 33.75 18C33.75 17.4033 33.9871 16.831 34.409 16.409C34.831 15.9871 35.4033 15.75 36 15.75C36.5967 15.75 37.169 15.9871 37.591 16.409C38.0129 16.831 38.25 17.4033 38.25 18Z" stroke="black" stroke-width="2" stroke-linecap="round" stroke-linejoin="round"/>
</svg>
